<!DOCTYPE svg PUBLIC "-//W3C//DTD SVG 1.1//EN" 
  "http://www.w3.org/Graphics/SVG/1.1/DTD/svg11.dtd"> 
<svg width="60mm" height="60mm" version="1.1" viewBox="0 0 60 60" xmlns="http://www.w3.org/2000/svg">
 <defs>
  <clipPath id="clipPath1472">
   <path d="m22.862 58.999c-0.41661-0.16811-0.4617-2.8752-0.08661-5.1996 0.12936-0.80161 0.52396-3.2938 0.87691-5.5383 0.84815-5.3935 1.8051-9.3615 3.3994-14.095 0.72112-2.1413 1.2704-3.9251 1.2206-3.9637-0.69467-0.54181-6.7202-2.6237-8.5437-2.9519-0.32065-0.0577-1.5012-0.3007-2.6234-0.53996s-2.512-0.43985-3.0885-0.44575c-1.825-0.0187-2.6413-1.8091-1.0114-2.2182 0.35504-0.0891 1.8163 0.16465 3.2472 0.56393 1.4309 0.39926 3.121 0.82098 3.7558 0.93715 0.98907 0.18101 5.3652 1.647 8.1481 2.7297 0.46699 0.18167 0.93975 0.22706 1.0506 0.10086 0.11084-0.1262 0.83492-1.6067 1.609-3.2901 0.77412-1.6834 1.6388-3.4541 1.9215-3.9352 0.54907-0.93409 2.9295-5.1118 3.9023-6.8487 0.32327-0.57716 1.0583-1.699 1.6334-2.4929 0.57507-0.79394 1.3873-2.036 1.8049-2.7601 0.41762-0.72412 0.99975-1.5767 1.2937-1.8947 0.2939-0.31798 0.98039-1.234 1.5255-2.0356 0.54514-0.80161 1.0972-1.5012 1.2268-1.5546 0.12957-0.0534 0.23559-0.283 0.23559-0.51012s0.12233-0.41293 0.27186-0.41293c0.14952 0 0.34888-0.24275 0.44307-0.53944 0.1533-0.48299 0.84982-0.61679 1.9814-0.38065 0.12024 0.0251 0.21861 0.47596 0.21861 1.002 0 0.78324-0.15003 1.0129-0.82904 1.2692-1.3578 0.5125-4.1341 4.3209-9.1086 12.495-2.6884 4.4175-6.6948 12.49-6.3524 12.8 0.0617 0.0557 0.76795 0.44622 1.5696 0.86772 1.5446 0.81225 1.6523 0.87675 4.3124 2.583 0.93731 0.60119 1.8261 1.0931 1.9751 1.0931 0.14898 0 0.27088 0.13118 0.27088 0.2915 0 0.16032 0.18583 0.29149 0.41294 0.29149 0.22711 0 0.45667 0.10279 0.51011 0.22842 0.15787 0.37113 3.6682 2.9779 4.01 2.9779 0.1725 0 0.31364 0.13087 0.31364 0.29081 0 0.15995 0.47127 0.78301 1.0473 1.3846 2.7001 2.8199 4.5852 5.4075 4.8022 6.5913 0.12164 0.66365 0.1778 1.2505 0.12479 1.304-0.053 0.0536-0.66469 0.17317-1.3593 0.26581-1.094 0.14588-1.2151 0.11046-0.9054-0.26472 0.5719-0.69289 0.22958-1.5428-1.6798-4.1709-2.0141-2.772-2.7612-3.4734-6.9593-6.5344-3.1192-2.274-4.0278-2.8437-6.1471-3.8542-0.72144-0.34401-1.3838-0.73785-1.472-0.87524-0.0881-0.13738-0.56838-0.33142-1.0672-0.4312l-0.90699-0.1814-1.4957 4.6292c-0.82265 2.5461-1.5331 4.9541-1.5788 5.3509-0.04569 0.39695-0.16609 0.9185-0.26757 1.159-0.54388 1.2888-1.9036 10.225-2.1247 13.964-0.0797 1.3476-0.21337 2.5609-0.29702 2.6964-0.16454 0.26622-0.6318 0.2867-1.2108 0.0531z" stroke-width=".26458"/>
  </clipPath>

    <style type="text/css"><![CDATA[ 
        svg{ 
            transition: all 1s ease;
            transition-delay: 1s;


            position: relative; 
            height:100px;
            width: 100px;
        }
        svg .text{
            stroke-dasharray: 2900;
            stroke-dashoffset: 2900;
            animation: animate 10s linear 1 forwards;
        } 
        @keyframes animate{
            to{
                stroke-dashoffset: 0;
            }
        }

    ]]>
    </style>
 </defs>
 <path class="text" d="m11.489 24.893 5.3027 0.44189 7.6595 2.5041 8.8378 3.2405 7.2176 5.1554 4.7135 3.8297 3.8297 5.0081 0.1473 2.6514 5.45 0.1473-1.0311-19.149-1.6203-26.661-5.3027-0.29459-5.8919 7.3649-4.2716 6.7757-3.977 7.0703c-1.5628 3.7131-3.4072 7.1092-4.6165 11.187l-2.7483 9.4344-1.473 8.8378-0.85297 6.561" clip-path="url(#clipPath1472)" fill="none" stroke="#fff" stroke-width="1.765"/>
</svg>
