<!DOCTYPE svg PUBLIC "-//W3C//DTD SVG 1.1//EN" 
  "http://www.w3.org/Graphics/SVG/1.1/DTD/svg11.dtd"> 

<svg width="60mm" height="60mm" version="1.1" viewBox="0 0 60 60" xmlns="http://www.w3.org/2000/svg">
 <defs>
  <clipPath id="clipPath21775">
   <text transform="scale(1.1569 .86435)" x="3.6975079" y="62.987858" fill="#000000" font-family="sans-serif" font-size="71.576px" stroke-width="1.7894" style="line-height:1.25" xml:space="preserve"><tspan x="3.6975079" y="62.987858" font-family="Chalkduster" font-size="71.576px" stroke-width="1.7894" style="font-variant-caps:normal;font-variant-east-asian:normal;font-variant-ligatures:normal;font-variant-numeric:normal">X</tspan></text>
  </clipPath>
 

    <style type="text/css"><![CDATA[ 
        svg{ 
            transition: all 1s ease;
            transition-delay: 1s;


            position: relative; 
            height:100px;
            width: 100px;
        }
        svg .text{
            stroke-dasharray: 2900;
            stroke-dashoffset: 2900;
            animation: animate 10s linear 1 forwards;
        } 
        @keyframes animate{
            to{
                stroke-dashoffset: 0;
            }
        }

    ]]>
    </style>
 </defs>
 <path class="text" d="m6.9977 7.9256 6.3008 6.4305 7.4099 8.3679 6.5921 7.9815 7.0928 8.524 4.464 5.3269 2.8316 4.5091c2.4157 2.6675 3.2125 4.65 6.2607 1.0294l2.83-3.2213 0.3413-18.026 0.1264-17.054c-1.1343-1.8021 0.41661-4.6891-2.5579-4.0375-7.8936 1.6236-5.1641 3.9955-5.8919 3.9963l-5.5192 7.5243-5.8485 5.9474c-1.5628 3.7131-5.2787 6.7349-6.488 10.813l-4.495 5.442-3.3444 5.095-3.972 6.561" clip-path="url(#clipPath21775)" fill="none" stroke="#fff" stroke-width="13.465"/>
</svg>
